HIERARCHY
ROOT hip
{
  OFFSET 0 0 0
  CHANNELS 6 Xposition Yposition Zposition Zrotation Yrotation Xrotation
  JOINT abdomen
  {
    OFFSET 0 20.6881 -0.73152
    CHANNELS 3 Zrotation Xrotation Yrotation
    JOINT chest
    {
      OFFSET 0 11.7043 -0.48768
      CHANNELS 3 Zrotation Xrotation Yrotation
      JOINT neck
      {
        OFFSET 0 22.1894 -2.19456
        CHANNELS 3 Zrotation Xrotation Yrotation
        JOINT head
        {
          OFFSET -0.24384 7.07133 1.2192
          CHANNELS 3 Zrotation Xrotation Yrotation
          JOINT leftEye
          {
            OFFSET 4.14528 8.04674 8.04672
            CHANNELS 3 Zrotation Xrotation Yrotation
            End Site
            {
              OFFSET 1 0 0
            }
          }
          JOINT rightEye
          {
            OFFSET -3.6576 8.04674 8.04672
            CHANNELS 3 Zrotation Xrotation Yrotation
            End Site
            {
              OFFSET 1 0 0
            }
          }
        }
      }
      JOINT rCollar
      {
        OFFSET -2.68224 19.2634 -4.8768
        CHANNELS 3 Zrotation Xrotation Yrotation
        JOINT rShldr
        {
          OFFSET -8.77824 -1.95073 1.46304
          CHANNELS 3 Zrotation Xrotation Yrotation
          JOINT rForeArm
          {
            OFFSET -28.1742 -1.7115 0.48768
            CHANNELS 3 Zrotation Xrotation Yrotation
            JOINT rHand
            {
              OFFSET -22.5879 0.773209 7.07136
              CHANNELS 3 Zrotation Xrotation Yrotation
              JOINT rThumb1
              {
                OFFSET -1.2192 -0.487915 3.41376
                CHANNELS 3 Zrotation Xrotation Yrotation
                JOINT rThumb2
                {
                  OFFSET -3.37035 -0.52449 3.41376
                  CHANNELS 3 Zrotation Xrotation Yrotation
                  End Site
                  {
                    OFFSET -1.78271 -1.18214 1.43049
                  }
                }
              }
              JOINT rIndex1
              {
                OFFSET -7.75947 0.938293 5.60832
                CHANNELS 3 Zrotation Xrotation Yrotation
                JOINT rIndex2
                {
                  OFFSET -2.54057 -0.884171 1.56538
                  CHANNELS 3 Zrotation Xrotation Yrotation
                  End Site
                  {
                    OFFSET -1.62519 -0.234802 1.16502
                  }
                }
              }
              JOINT rMid1
              {
                OFFSET -8.24714 1.18213 3.41376
                CHANNELS 3 Zrotation Xrotation Yrotation
                JOINT rMid2
                {
                  OFFSET -3.10165 -0.590103 1.0647
                  CHANNELS 3 Zrotation Xrotation Yrotation
                  End Site
                  {
                    OFFSET -2.48547 -0.328903 0.83742
                  }
                }
              }
              JOINT rRing1
              {
                OFFSET -8.82822 0.546677 1.51678
                CHANNELS 3 Zrotation Xrotation Yrotation
                JOINT rRing2
                {
                  OFFSET -2.60934 -0.819778 -0.0198488
                  CHANNELS 3 Zrotation Xrotation Yrotation
                  End Site
                  {
                    OFFSET -2.33842 -0.294052 0.168128
                  }
                }
              }
              JOINT rPinky1
              {
                OFFSET -8.27202 -0.0477905 -0.4584
                CHANNELS 3 Zrotation Xrotation Yrotation
                JOINT rPinky2
                {
                  OFFSET -1.82734 -0.647385 -0.700984
                  CHANNELS 3 Zrotation Xrotation Yrotation
                  End Site
                  {
                    OFFSET -1.69225 -0.51767 -0.607171
                  }
                }
              }
            }
          }
        }
      }
      JOINT lCollar
      {
        OFFSET 2.68224 19.2634 -4.8768
        CHANNELS 3 Zrotation Xrotation Yrotation
        JOINT lShldr
        {
          OFFSET 8.77824 -1.95073 1.46304
          CHANNELS 3 Zrotation Xrotation Yrotation
          JOINT lForeArm
          {
            OFFSET 28.1742 -1.7115 0.48768
            CHANNELS 3 Zrotation Xrotation Yrotation
            JOINT lHand
            {
              OFFSET 22.5879 0.773209 7.07136
              CHANNELS 3 Zrotation Xrotation Yrotation
              JOINT lThumb1
              {
                OFFSET 1.2192 -0.487915 3.41376
                CHANNELS 3 Zrotation Xrotation Yrotation
                JOINT lThumb2
                {
                  OFFSET 3.37035 -0.52449 3.41376
                  CHANNELS 3 Zrotation Xrotation Yrotation
                  End Site
                  {
                    OFFSET 1.78271 -1.18214 1.43049
                  }
                }
              }
              JOINT lIndex1
              {
                OFFSET 7.75947 0.938293 5.60832
                CHANNELS 3 Zrotation Xrotation Yrotation
                JOINT lIndex2
                {
                  OFFSET 2.54057 -0.884171 1.56538
                  CHANNELS 3 Zrotation Xrotation Yrotation
                  End Site
                  {
                    OFFSET 1.62519 -0.234802 1.16502
                  }
                }
              }
              JOINT lMid1
              {
                OFFSET 8.24714 1.18213 3.41376
                CHANNELS 3 Zrotation Xrotation Yrotation
                JOINT lMid2
                {
                  OFFSET 3.10165 -0.590103 1.0647
                  CHANNELS 3 Zrotation Xrotation Yrotation
                  End Site
                  {
                    OFFSET 2.48547 -0.328903 0.83742
                  }
                }
              }
              JOINT lRing1
              {
                OFFSET 8.82822 0.546677 1.51678
                CHANNELS 3 Zrotation Xrotation Yrotation
                JOINT lRing2
                {
                  OFFSET 2.60934 -0.819778 -0.0198488
                  CHANNELS 3 Zrotation Xrotation Yrotation
                  End Site
                  {
                    OFFSET 2.33842 -0.294052 0.168128
                  }
                }
              }
              JOINT lPinky1
              {
                OFFSET 8.27202 -0.0477905 -0.4584
                CHANNELS 3 Zrotation Xrotation Yrotation
                JOINT lPinky2
                {
                  OFFSET 1.82734 -0.647385 -0.700984
                  CHANNELS 3 Zrotation Xrotation Yrotation
                  End Site
                  {
                    OFFSET 1.69225 -0.51767 -0.607171
                  }
                }
              }
            }
          }
        }
      }
    }
  }
  JOINT rButtock
  {
    OFFSET -8.77824 4.35084 1.2192
    CHANNELS 3 Zrotation Xrotation Yrotation
    JOINT rThigh
    {
      OFFSET 0 -1.70687 -2.19456
      CHANNELS 3 Zrotation Xrotation Yrotation
      JOINT rShin
      {
        OFFSET 0 -36.8199 0.73152
        CHANNELS 3 Zrotation Xrotation Yrotation
        JOINT rFoot
        {
          OFFSET 0.73152 -45.1104 -5.12064
          CHANNELS 3 Zrotation Xrotation Yrotation
          End Site
          {
            OFFSET -1.1221 -3.69964 12.103
          }
        }
      }
    }
  }
  JOINT lButtock
  {
    OFFSET 8.77824 4.35084 1.2192
    CHANNELS 3 Zrotation Xrotation Yrotation
    JOINT lThigh
    {
      OFFSET 0 -1.70687 -2.19456
      CHANNELS 3 Zrotation Xrotation Yrotation
      JOINT lShin
      {
        OFFSET 0 -36.8199 0.73152
        CHANNELS 3 Zrotation Xrotation Yrotation
        JOINT lFoot
        {
          OFFSET -0.73152 -45.1104 -5.12064
          CHANNELS 3 Zrotation Xrotation Yrotation
          End Site
          {
            OFFSET 1.1221 -3.69964 12.103
          }
        }
      }
    }
  }
}
MOTION
Frames:	9
Frame Time:	0.00833333
-53.7824 83.0696 152.8 0.0 0.0 0.0 -3.29162 -0.00200153 -0.0897125 -0.910495 0.0108265 -0.157566 -8.26069e-14 -7.95139e-16 -5.96354e-16 -2.48574e-13 3.18055e-15 -1.74092e-15 -0.0 0.0 0.0 -0.0 0.0 0.0 -4.14011e-14 -2.64011e-16 -9.93923e-17 -8.70078e-13 -5.29885e-15 -8.74653e-15 -1.49769e-11 4.31224e-12 2.8625e-14 -1.71605e-10 -5.48743e-12 -1.59664e-12 -4.04738e-10 -2.55227e-12 -3.35867e-12 -6.98976e-10 -4.40189e-12 -5.78463e-12 -4.04738e-10 -2.5524e-12 -3.36821e-12 7.73091 5.47488 0.417314 -4.04739e-10 -2.5524e-12 -3.35549e-12 2.90554 0.965183 0.102902 -4.04739e-10 -2.55249e-12 -3.35549e-12 10.2786 0.731801 0.0259123 -4.04745e-10 -2.55001e-12 -3.33958e-12 2.22167 -0.733487 -0.20892 -4.14948e-14 -2.64011e-16 -3.97569e-16 -8.73382e-13 -5.12492e-15 -1.07344e-14 -1.50095e-11 -4.66548e-12 -2.54444e-14 -1.7154e-10 3.4999e-12 -1.52667e-12 -4.04667e-10 -2.53322e-12 -3.3364e-12 -6.98824e-10 -4.37326e-12 -5.76396e-12 -4.0467e-10 -2.53132e-12 -3.3205e-12 -7.73091 5.47488 -0.417314 -4.04665e-10 -2.53321e-12 -3.33958e-12 -2.90554 0.965183 -0.102902 -4.04672e-10 -2.53321e-12 -3.34197e-12 -10.2786 0.731801 -0.0259123 -4.04658e-10 -2.53093e-12 -3.3523e-12 -2.22167 -0.733487 0.20892 -2.03217e-16 0.0 -3.88251e-19 -2.14054 -1.93291 0.0183676 -0.00780863 -2.07877 -0.0636429 -0.356118 4.00069 0.117306 2.03217e-16 0.0 3.88251e-19 -2.8808 -9.67717 0.338983 -0.0100204 11.9464 -0.261556 0.458595 -2.28005 -0.0059661
-54.3926 78.8401 139.154 -177.746 -6.549 -164.953 1.28393 -5.41604 0.18764 -1.56742 0.877921 -0.346992 1.26981 -0.392842 0.823411 -1.41761 3.72238 0.526277 -0.0 0.0 0.0 -0.0 0.0 0.0 -1.06591e-14 -1.37489e-13 1.87366e-14 20.4032 3.63206 -0.182717 -3.24842 -1.32432 5.22665 0.000330664 -0.469733 -0.0660106 -8.64515e-10 -1.09806e-10 6.91179e-10 -1.49391e-09 -1.89317e-10 1.1934e-09 -8.64515e-10 -1.09806e-10 6.9117e-10 7.73091 5.47488 0.417314 -8.64517e-10 -1.09806e-10 6.91182e-10 2.90554 0.965183 0.102902 -8.64513e-10 -1.09806e-10 6.91182e-10 10.2786 0.731801 0.0259123 -8.64524e-10 -1.09803e-10 6.91196e-10 2.22167 -0.733487 -0.20892 -1.07497e-14 -1.37498e-13 1.85064e-14 -21.0603 9.77433 2.69512 3.81949 -1.66266 -6.04252 -0.186774 -9.61219 1.28327 -5.88709e-10 -2.19985e-10 -3.84546e-10 -1.00824e-09 -3.7261e-10 -6.69941e-10 -5.88712e-10 -2.19985e-10 -3.84534e-10 -7.73091 5.47488 -0.417314 -5.88707e-10 -2.19985e-10 -3.84549e-10 -2.90554 0.965183 -0.102902 -5.88713e-10 -2.19985e-10 -3.84553e-10 -10.2786 0.731801 -0.0259123 -5.88699e-10 -2.19982e-10 -3.84563e-10 -2.22167 -0.733487 0.20892 -2.03217e-16 0.0 -3.88251e-19 0.707062 -10.9658 4.09977 0.0118855 8.39014 0.0916098 -0.574247 -0.37111 -3.21133 2.03217e-16 0.0 3.88251e-19 -1.75346 -17.5441 -1.12555 0.0311717 25.8701 -0.467861 0.166827 -1.95334 -2.18156
-54.4794 78.8209 138.73 -177.838 -6.4247 -164.922 6.19053 -11.1466 0.489627 -2.25893 1.79365 -0.547971 2.62342 -0.809184 1.69206 -2.9913 7.65213 1.08754 -0.0 0.0 0.0 -0.0 0.0 0.0 2.11222e-14 -2.85081e-13 3.93128e-14 41.9993 7.48162 -0.41155 -6.42958 -2.69272 10.775 -0.000590812 -0.994058 -0.13971 -1.36067e-09 -2.11163e-10 1.41478e-09 -2.35185e-09 -3.63914e-10 2.44265e-09 -1.36067e-09 -2.11163e-10 1.41477e-09 7.73091 5.47488 0.417314 -1.36067e-09 -2.11161e-10 1.41478e-09 2.90554 0.965183 0.102902 -1.36066e-09 -2.11162e-10 1.41479e-09 10.2786 0.731801 0.0259123 -1.36068e-09 -2.11159e-10 1.4148e-09 2.22167 -0.733487 -0.20892 2.10341e-14 -2.851e-13 3.91544e-14 -44.3928 20.0225 5.8356 7.46814 -3.35186 -12.4309 0.110397 -19.751 2.76486 -7.64494e-10 -4.4116e-10 -7.80533e-10 -1.30313e-09 -7.47109e-10 -1.35938e-09 -7.64496e-10 -4.41162e-10 -7.80524e-10 -7.73091 5.47488 -0.417314 -7.64493e-10 -4.41161e-10 -7.80536e-10 -2.90554 0.965183 -0.102902 -7.64497e-10 -4.41161e-10 -7.8054e-10 -10.2786 0.731801 -0.0259123 -7.64483e-10 -4.41157e-10 -7.80551e-10 -2.22167 -0.733487 0.20892 -2.03217e-16 0.0 -3.88251e-19 5.20907 -20.3641 8.81116 -0.0322113 19.4558 0.268231 -1.35433 -4.94806 -6.7473 2.03217e-16 0.0 3.88251e-19 -1.03299 -25.7786 -2.83116 0.221773 40.5934 -0.784675 -0.117413 -1.5605 -4.53381
-54.5341 78.7871 138.482 -178.014 -6.5989 -164.634 10.5974 -16.2428 0.770592 -2.86405 2.61195 -0.726476 3.84329 -1.17755 2.4707 -4.46131 11.1633 1.60589 -0.0 0.0 0.0 -0.0 0.0 0.0 5.08248e-14 -4.11938e-13 5.64086e-14 61.2802 10.8957 -0.557092 -9.02908 -3.84092 15.712 -0.00225592 -1.40919 -0.198085 -1.78407e-09 -3.24314e-10 2.08025e-09 -3.08379e-09 -5.59148e-10 3.59178e-09 -1.78407e-09 -3.24315e-10 2.08025e-09 7.73091 5.47488 0.417314 -1.78407e-09 -3.24312e-10 2.08026e-09 2.90554 0.965183 0.102902 -1.78406e-09 -3.24313e-10 2.08026e-09 10.2786 0.731801 0.0259123 -1.78408e-09 -3.24309e-10 2.08027e-09 2.22167 -0.733487 -0.20892 5.07406e-14 -4.11966e-13 5.63143e-14 -66.2653 29.0442 9.12321 10.4228 -4.7665 -18.185 0.884787 -28.7745 4.33143 -9.56793e-10 -6.54888e-10 -1.14697e-09 -1.62706e-09 -1.10908e-09 -1.99829e-09 -9.56794e-10 -6.54892e-10 -1.14696e-09 -7.73091 5.47488 -0.417314 -9.56792e-10 -6.54889e-10 -1.14697e-09 -2.90554 0.965183 -0.102902 -9.56795e-10 -6.5489e-10 -1.14697e-09 -10.2786 0.731801 -0.0259123 -9.56782e-10 -6.54885e-10 -1.14698e-09 -2.22167 -0.733487 0.20892 -2.03217e-16 0.0 -3.88251e-19 10.685 -28.4146 13.7167 -0.137455 29.3272 0.457759 -2.53968 -8.98049 -9.99154 2.03217e-16 0.0 3.88251e-19 -0.915806 -33.2005 -4.6479 0.632546 53.7129 -1.26924 -0.342311 -1.29569 -6.53063
-54.6462 78.7967 137.983 -178.118 -6.3503 -164.737 13.6371 -19.7546 0.971062 -3.2654 3.18678 -0.848224 4.70487 -1.42691 3.02384 -5.52584 13.6316 1.99165 -0.0 0.0 0.0 -0.0 0.0 0.0 7.53308e-14 -4.86956e-13 6.48038e-14 74.7019 13.2219 -0.482094 -10.6833 -4.56717 19.0894 -0.00295258 -1.55135 -0.218082 -2.0256e-09 -4.66953e-10 2.6004e-09 -3.50075e-09 -8.05975e-10 4.49059e-09 -2.0256e-09 -4.66953e-10 2.60039e-09 7.73091 5.47488 0.417314 -2.02561e-09 -4.6695e-10 2.6004e-09 2.90554 0.965183 0.102902 -2.02559e-09 -4.66952e-10 2.6004e-09 10.2786 0.731801 0.0259123 -2.02561e-09 -4.66948e-10 2.60041e-09 2.22167 -0.733487 -0.20892 7.52537e-14 -4.8699e-13 6.47541e-14 -82.1815 35.2704 11.7925 12.3553 -5.70091 -22.2997 1.79014 -35.0678 5.66176 -1.19038e-09 -8.49996e-10 -1.43951e-09 -2.02357e-09 -1.43975e-09 -2.51092e-09 -1.19038e-09 -8.50001e-10 -1.43951e-09 -7.73091 5.47488 -0.417314 -1.19038e-09 -8.49998e-10 -1.43952e-09 -2.90554 0.965183 -0.102902 -1.19038e-09 -8.49998e-10 -1.43952e-09 -10.2786 0.731801 -0.0259123 -1.19037e-09 -8.49993e-10 -1.43953e-09 -2.22167 -0.733487 0.20892 -2.03217e-16 0.0 -3.88251e-19 15.4166 -33.6734 17.7441 -0.259044 36.2138 0.625909 -3.66967 -11.7872 -12.3659 2.03217e-16 0.0 3.88251e-19 -1.2993 -38.6568 -6.25814 1.21371 62.8267 -1.87808 -0.48903 -1.35108 -7.64043
-54.7423 78.7959 137.572 -178.252 -6.238 -164.688 14.7086 -21.0556 1.03245 -3.38121 3.42417 -0.892141 5.05609 -1.50419 3.26185 -5.95789 14.6338 2.17577 -0.0 0.0 0.0 -0.0 0.0 0.0 9.49396e-14 -4.89486e-13 5.9555e-14 79.8838 13.9932 -0.0753711 -11.2159 -4.78167 20.2366 -0.00133207 -1.26573 -0.177907 -2.01943e-09 -7.04523e-10 3.00668e-09 -3.48832e-09 -1.21805e-09 5.19409e-09 -2.01943e-09 -7.04522e-10 3.00667e-09 7.73091 5.47488 0.417314 -2.01943e-09 -7.04519e-10 3.00669e-09 2.90554 0.965183 0.102902 -2.01942e-09 -7.04521e-10 3.00669e-09 10.2786 0.731801 0.0259123 -2.01944e-09 -7.04518e-10 3.0067e-09 2.22167 -0.733487 -0.20892 9.48799e-14 -4.89523e-13 5.95263e-14 -88.4323 37.815 12.7598 13.1518 -6.10023 -24.0742 2.25311 -37.5705 6.26788 -1.56158e-09 -1.06067e-09 -1.68868e-09 -2.6579e-09 -1.79703e-09 -2.95276e-09 -1.56158e-09 -1.06068e-09 -1.68868e-09 -7.73091 5.47488 -0.417314 -1.56158e-09 -1.06067e-09 -1.68868e-09 -2.90554 0.965183 -0.102902 -1.56158e-09 -1.06067e-09 -1.68869e-09 -10.2786 0.731801 -0.0259123 -1.56157e-09 -1.06067e-09 -1.6887e-09 -2.22167 -0.733487 0.20892 -2.03217e-16 0.0 -3.88251e-19 17.3724 -35.4936 19.5013 -0.321018 38.9314 0.713479 -4.23888 -12.9855 -13.4127 2.03217e-16 0.0 3.88251e-19 -1.80396 -41.4328 -7.20221 1.57476 66.3816 -2.23723 -0.547238 -1.87684 -7.51585
-54.8411 78.8043 137.156 -178.392 -6.108 -164.638 14.3611 -20.7773 0.988751 -3.29456 3.42038 -0.880262 5.04022 -1.45903 3.27464 -5.92056 14.5901 2.20997 -0.0 0.0 0.0 -0.0 0.0 0.0 1.10937e-13 -4.40234e-13 4.46303e-14 79.19 13.654 0.565782 -10.9915 -4.65372 19.7877 0.000631236 -0.676715 -0.0950975 -1.83599e-09 -1.00735e-09 3.32737e-09 -3.16866e-09 -1.74372e-09 5.75069e-09 -1.83599e-09 -1.00734e-09 3.32736e-09 7.73091 5.47488 0.417314 -1.836e-09 -1.00734e-09 3.32737e-09 2.90554 0.965183 0.102902 -1.83599e-09 -1.00734e-09 3.32737e-09 10.2786 0.731801 0.0259123 -1.836e-09 -1.00734e-09 3.32738e-09 2.22167 -0.733487 -0.20892 1.10902e-13 -4.40272e-13 4.46054e-14 -87.4034 37.7972 12.2347 13.2089 -6.16191 -24.1686 2.21148 -37.3834 6.21876 -2.02729e-09 -1.28049e-09 -1.90401e-09 -3.45563e-09 -2.16995e-09 -3.33898e-09 -2.02729e-09 -1.28049e-09 -1.90401e-09 -7.73091 5.47488 -0.417314 -2.02729e-09 -1.28049e-09 -1.90401e-09 -2.90554 0.965183 -0.102902 -2.02729e-09 -1.28049e-09 -1.90401e-09 -10.2786 0.731801 -0.0259123 -2.02728e-09 -1.28048e-09 -1.90403e-09 -2.22167 -0.733487 0.20892 -2.03217e-16 0.0 -3.88251e-19 16.8809 -35.0063 19.3213 -0.313658 38.6709 0.723783 -4.28545 -13.0688 -13.473 2.03217e-16 0.0 3.88251e-19 -2.1985 -42.3139 -7.52545 1.52935 65.9662 -2.1764 -0.517051 -2.74052 -6.50969
-54.9454 78.8193 136.726 -178.528 -5.9502 -164.611 13.4432 -19.8572 0.912079 -3.13601 3.31485 -0.842842 4.87458 -1.37468 3.19596 -5.68927 14.1418 2.18024 -0.0 0.0 0.0 -0.0 0.0 0.0 1.21685e-13 -3.70132e-13 2.81758e-14 76.1794 12.92 1.27159 -10.4807 -4.39979 18.7447 0.000814865 -0.0393415 -0.00552317 -1.5706e-09 -1.25043e-09 3.47046e-09 -2.70751e-09 -2.16601e-09 6.00034e-09 -1.57059e-09 -1.25043e-09 3.47045e-09 7.73091 5.47488 0.417314 -1.5706e-09 -1.25043e-09 3.47047e-09 2.90554 0.965183 0.102902 -1.57059e-09 -1.25043e-09 3.47047e-09 10.2786 0.731801 0.0259123 -1.5706e-09 -1.25043e-09 3.47048e-09 2.22167 -0.733487 -0.20892 1.21668e-13 -3.70169e-13 2.81424e-14 -83.4723 36.731 11.1272 12.9867 -6.10098 -23.61 1.96918 -36.1478 5.9117 -2.40308e-09 -1.43734e-09 -2.0097e-09 -4.10076e-09 -2.43643e-09 -3.53333e-09 -2.40308e-09 -1.43734e-09 -2.0097e-09 -7.73091 5.47488 -0.417314 -2.40308e-09 -1.43734e-09 -2.0097e-09 -2.90554 0.965183 -0.102902 -2.40308e-09 -1.43734e-09 -2.0097e-09 -10.2786 0.731801 -0.0259123 -2.40307e-09 -1.43734e-09 -2.00971e-09 -2.22167 -0.733487 0.20892 -2.03217e-16 0.0 -3.88251e-19 15.4159 -33.5814 18.3747 -0.276934 37.2047 0.701073 -4.11035 -12.7034 -13.1252 2.03217e-16 0.0 3.88251e-19 -2.51426 -42.4097 -7.58109 1.32016 63.8918 -1.9454 -0.408936 -3.70666 -5.13958
-55.0512 78.8402 136.293 -178.661 -5.781 -164.583 12.8008 -19.2327 0.873622 -3.03604 3.24698 -0.810151 4.77645 -1.33437 3.15956 -5.5428 13.9299 2.17353 -0.0 0.0 0.0 -0.0 0.0 0.0 1.25546e-13 -3.10112e-13 1.83379e-14 74.3773 12.5083 1.88024 -10.1636 -4.24138 18.1087 -0.000187848 0.391354 0.0550021 -1.31853e-09 -1.30879e-09 3.34398e-09 -2.27067e-09 -2.26794e-09 5.78301e-09 -1.31853e-09 -1.30879e-09 3.34397e-09 7.73091 5.47488 0.417314 -1.31854e-09 -1.30879e-09 3.34398e-09 2.90554 0.965183 0.102902 -1.31853e-09 -1.30879e-09 3.34398e-09 10.2786 0.731801 0.0259123 -1.31854e-09 -1.30879e-09 3.344e-09 2.22167 -0.733487 -0.20892 1.25528e-13 -3.10147e-13 1.82882e-14 -81.004 36.1424 10.3484 12.9314 -6.1237 -23.4277 1.84354 -35.5039 5.75421 -2.50455e-09 -1.45913e-09 -1.92996e-09 -4.27728e-09 -2.47438e-09 -3.39954e-09 -2.50455e-09 -1.45913e-09 -1.92995e-09 -7.73091 5.47488 -0.417314 -2.50455e-09 -1.45913e-09 -1.92996e-09 -2.90554 0.965183 -0.102902 -2.50455e-09 -1.45913e-09 -1.92996e-09 -10.2786 0.731801 -0.0259123 -2.50454e-09 -1.45913e-09 -1.92997e-09 -2.22167 -0.733487 0.20892 -2.03217e-16 0.0 -3.88251e-19 14.4514 -32.5835 17.8271 -0.255119 36.305 0.692507 -4.03564 -12.5499 -12.9548 2.03217e-16 0.0 3.88251e-19 -2.8682 -42.8202 -7.78948 1.1995 62.4698 -1.80371 -0.277903 -4.53523 -3.92308
